HIERARCHY
ROOT Hips
{
    OFFSET 0.000000 0.000000 0.000000
    CHANNELS 6 Xposition Yposition Zposition Zrotation Xrotation Yrotation
    JOINT Spine
    {
        OFFSET -0.000000 7.925200 0.000000
        CHANNELS 3 Zrotation Xrotation Yrotation
        JOINT Spine1
        {
            OFFSET -0.000000 23.364719 0.000000
            CHANNELS 3 Zrotation Xrotation Yrotation
            JOINT Neck
            {
                OFFSET -0.000000 23.268766 2.115342
                CHANNELS 3 Zrotation Xrotation Yrotation
                JOINT Head
                {
                    OFFSET -0.000000 13.530829 -1.932976
                    CHANNELS 3 Zrotation Xrotation Yrotation
                    End Site
                    {
                        OFFSET -0.000000 24.162195 0.000000
                    }
                }
            }
            JOINT LeftShoulder
            {
                OFFSET 3.858291 22.792089 -0.033814
                CHANNELS 3 Zrotation Xrotation Yrotation
                JOINT LeftArm
                {
                    OFFSET 7.057024 0.000000 0.000000
                    CHANNELS 3 Zrotation Xrotation Yrotation
                    JOINT LeftForeArm
                    {
                        OFFSET 34.734173 0.000000 0.000000
                        CHANNELS 3 Zrotation Xrotation Yrotation
                        JOINT LeftHand
                        {
                            OFFSET 23.943203 0.000000 0.000000
                            CHANNELS 3 Zrotation Xrotation Yrotation
                            End Site
                            {
                                OFFSET 14.497317 0.000000 0.000000
                            }
                        }
                    }
                }
            }
            JOINT RightShoulder
            {
                OFFSET -3.868823 22.792089 -0.033814
                CHANNELS 3 Zrotation Xrotation Yrotation
                JOINT RightArm
                {
                    OFFSET -7.057024 0.000000 0.000000
                    CHANNELS 3 Zrotation Xrotation Yrotation
                    JOINT RightForeArm
                    {
                        OFFSET -34.734173 0.000000 0.000000
                        CHANNELS 3 Zrotation Xrotation Yrotation
                        JOINT RightHand
                        {
                            OFFSET -23.943203 0.000000 0.000000
                            CHANNELS 3 Zrotation Xrotation Yrotation
                            End Site
                            {
                                OFFSET -14.497317 0.000000 0.000000
                            }
                        }
                    }
                }
            }
        }
    }
    JOINT LeftUpLeg
    {
        OFFSET 9.664878 0.000000 0.000000
        CHANNELS 3 Zrotation Xrotation Yrotation
        JOINT LeftLeg
        {
            OFFSET -0.000000 -38.728706 0.000000
            CHANNELS 3 Zrotation Xrotation Yrotation
            JOINT LeftFoot
            {
                OFFSET -0.000000 -40.242161 0.000000
                CHANNELS 3 Zrotation Xrotation Yrotation
                JOINT LeftToeBase
                {
                    OFFSET -0.000000 -6.282171 14.497317
                    CHANNELS 3 Zrotation Xrotation Yrotation
                    End Site
                    {
                        OFFSET -0.000000 0.000000 3.865951
                    }
                }
            }
        }
    }
    JOINT RightUpLeg
    {
        OFFSET -9.664878 0.000000 0.000000
        CHANNELS 3 Zrotation Xrotation Yrotation
        JOINT RightLeg
        {
            OFFSET -0.000000 -38.728706 0.000000
            CHANNELS 3 Zrotation Xrotation Yrotation
            JOINT RightFoot
            {
                OFFSET -0.000000 -40.242161 0.000000
                CHANNELS 3 Zrotation Xrotation Yrotation
                JOINT RightToeBase
                {
                    OFFSET -0.000000 -6.282171 14.497317
                    CHANNELS 3 Zrotation Xrotation Yrotation
                    End Site
                    {
                        OFFSET -0.000000 0.000000 3.865951
                    }
                }
            }
        }
    }
}
MOTION
Frames:    14
Frame Time:    0.008333
123.209587    88.554802    1.651737    -1.036821    -1.149556    88.117279    2.839488    -6.982256    0.708852    0.860523    5.081816    0.497350    -1.942329    14.752694    2.363500    -2.254686    3.332695    2.230658    4.143109    -0.015282    3.319092    -32.542637    -12.472819    -13.709914    53.285847    -50.478714    -81.303085    33.110542    -2.305371    11.861006    1.380377    7.744084    2.534612    27.151854    64.524071    36.738548    -0.768586    -11.352558    17.628166    4.462379    -11.103661    3.459248    2.679767    3.299420    -1.041310    -2.458759    0.117490    -3.475960    0.718836    -5.474579    12.024580    0.000000    0.000000    0.000000    1.872078    0.067356    2.904769    -1.446378    5.705085    0.810574    0.778464    -6.504190    -14.644234    0.000000    0.000000    0.000000    
123.220764    88.546974    1.663635    -0.955829    -1.148718    88.091927    2.836823    -6.881985    0.702535    0.867875    5.025695    0.493902    -1.728308    14.980640    2.463665    -2.665974    3.034996    2.274367    4.120681    -0.116772    3.270234    -32.369873    -12.405135    -13.592895    53.182835    -49.961437    -80.429794    33.112808    -2.514752    11.993361    1.383545    7.561384    2.703772    27.679798    64.629417    36.164063    -0.772165    -11.345463    17.647528    4.388062    -11.099881    3.411884    2.684811    3.400867    -1.003294    -2.459975    0.106440    -3.503784    0.720097    -5.493304    12.037811    0.000000    0.000000    0.000000    1.874815    0.162302    2.926993    -1.445639    5.695663    0.853791    0.851105    -6.524943    -14.692787    0.000000    0.000000    0.000000    
123.225128    88.546982    1.672438    -0.946850    -1.146508    88.096916    2.851541    -6.893484    0.691329    0.826471    5.042480    0.483159    -1.731905    14.957988    2.461651    -2.629668    3.075988    2.277854    4.181561    -0.138701    3.295273    -32.329029    -12.312989    -13.625474    53.427448    -49.519386    -79.239334    32.526123    -2.804326    12.045245    1.380519    7.783912    2.585491    27.047606    64.535439    36.842339    -0.759748    -11.392657    17.660954    4.376493    -11.149632    3.402140    2.687525    3.413694    -1.011013    -2.457186    0.100281    -3.490277    0.783160    -5.446864    12.019234    0.000000    0.000000    0.000000    1.878538    0.181443    2.909240    -1.445238    5.683079    0.833268    0.870217    -6.521941    -14.667495    0.000000    0.000000    0.000000    
123.221466    88.548363    1.683153    -0.951207    -1.147822    88.085854    2.849041    -6.893599    0.680910    0.844805    5.031965    0.472320    -1.891200    15.197643    2.415886    -2.465505    2.698378    2.238949    4.167753    -0.061887    3.368917    -32.263451    -12.249370    -13.748175    53.035892    -49.075020    -78.520348    32.884563    -3.187918    12.402486    1.338745    7.786288    2.612943    27.059605    64.515388    36.859596    -0.738343    -11.388801    17.666739    4.326746    -11.150765    3.392945    2.697727    3.407336    -1.001186    -2.460730    0.104557    -3.483019    0.769338    -5.450780    12.009727    0.000000    0.000000    0.000000    1.887865    0.168807    2.911914    -1.448065    5.691783    0.845953    0.842349    -6.517182    -14.665153    0.000000    0.000000    0.000000    
123.226402    88.548225    1.690019    -0.937882    -1.140894    88.080856    2.843236    -6.890582    0.676630    0.838603    5.034604    0.468714    -1.874089    15.209977    2.426964    -2.491597    2.683820    2.246648    4.202454    -0.066264    3.375385    -32.222092    -12.193646    -13.773519    53.111031    -48.623226    -77.470161    32.249454    -3.503032    12.470311    1.348820    7.559322    2.748303    27.585367    64.640274    36.281708    -0.737303    -11.378399    17.686682    4.303051    -11.141575    3.379014    2.690420    3.430580    -0.985118    -2.450936    0.098416    -3.499945    0.704578    -5.485441    12.023180    0.000000    0.000000    0.000000    1.880823    0.189093    2.914735    -1.440652    5.688693    0.871890    0.838878    -6.528045    -14.681251    0.000000    0.000000    0.000000    
123.226845    88.549782    1.701298    -0.935181    -1.146687    88.080627    2.861888    -6.869332    0.657876    0.819950    4.987983    0.450418    -1.913654    15.236429    2.438732    -2.461629    2.675952    2.262223    4.199662    -0.071662    3.393494    -32.109985    -12.082611    -13.763394    52.848305    -48.175369    -76.655647    32.471741    -3.811804    12.764940    1.324069    7.807621    2.651301    27.059889    64.491364    36.886250    -0.726376    -11.386675    17.662764    4.305860    -11.151519    3.380842    2.712650    3.436823    -0.989963    -2.463382    0.091678    -3.506367    0.787172    -5.443202    12.018366    0.000000    0.000000    0.000000    1.896560    0.183212    2.837652    -1.452344    5.703208    0.923920    0.716233    -6.524157    -14.642612    0.000000    0.000000    0.000000    
123.231766    88.549355    1.708868    -0.926375    -1.132907    88.083542    3.103120    -6.606348    0.399645    0.572218    4.460438    0.198556    -2.863390    15.379635    2.673879    -1.544532    2.841496    2.624480    3.788819    -0.033127    3.888025    -31.514130    -11.814222    -13.562755    52.806107    -47.682171    -75.483566    32.430744    -4.197481    12.887244    1.145463    8.193856    3.385736    27.706791    64.127876    36.524761    -0.729913    -11.272465    17.447334    4.277023    -11.039721    3.357634    2.701097    3.451296    -0.985875    -2.457631    0.085043    -3.500299    0.674540    -5.482579    12.017364    0.000000    0.000000    0.000000    1.886217    0.192066    2.832451    -1.450837    5.704596    0.910813    0.842366    -6.530111    -14.636601    0.000000    0.000000    0.000000    
123.232101    88.550201    1.720819    -0.924206    -1.141863    88.086349    2.814600    -6.881878    0.646207    0.882568    4.995911    0.438609    -1.967258    15.269820    2.435299    -2.420862    2.628120    2.262434    4.215036    -0.086238    3.353307    -31.977690    -12.024707    -13.816767    52.802845    -47.189011    -74.665016    32.277050    -4.155117    13.201321    1.293750    7.777881    2.658134    27.083015    64.491165    36.854351    -0.710359    -11.373777    17.669882    4.290102    -11.142057    3.364210    2.722294    3.451206    -0.985125    -2.468306    0.090090    -3.491173    0.747292    -5.440631    12.001926    0.000000    0.000000    0.000000    1.904194    0.192187    2.825431    -1.451747    5.711871    0.936252    0.854429    -6.530149    -14.665689    0.000000    0.000000    0.000000    
123.233482    88.548828    1.730963    -0.915944    -1.145100    88.090752    2.830930    -6.857245    0.624422    0.855627    4.952731    0.417908    -1.994322    15.288294    2.458831    -2.390741    2.630412    2.290515    4.229213    -0.095485    3.375923    -31.815989    -12.011793    -13.827064    52.667694    -46.596745    -73.729103    32.383335    -4.222098    13.369575    1.324312    7.609461    2.825539    27.581505    64.571396    36.299088    -0.709714    -11.349672    17.677408    4.130201    -11.130305    3.146946    2.731700    3.460380    -0.974172    -2.463839    0.092423    -3.521985    0.754125    -5.448948    12.010037    0.000000    0.000000    0.000000    1.913988    0.199319    2.815768    -1.453164    5.717344    0.926113    0.828716    -6.533394    -14.641444    0.000000    0.000000    0.000000    
123.233345    88.550369    1.739573    -0.911920    -1.152130    88.087517    2.845212    -6.856163    0.633778    0.822059    4.948508    0.427796    -1.937835    15.301302    2.450640    -2.419283    2.612612    2.277430    4.289792    -0.087317    3.338972    -31.792328    -11.915367    -13.870001    52.530952    -46.125126    -72.791351    32.799667    -4.422823    13.504888    1.374040    7.809358    2.692794    27.060205    64.459091    36.819073    -0.709854    -11.359177    17.667526    4.099635    -11.141871    3.112849    2.743449    3.461826    -0.960260    -2.461422    0.100393    -3.537282    0.751344    -5.451553    12.012566    0.000000    0.000000    0.000000    1.916651    0.198774    2.854926    -1.429132    5.730114    0.906066    0.812900    -6.538327    -14.664766    0.000000    0.000000    0.000000    
123.234467    88.552139    1.746200    -0.909967    -1.145100    88.079430    2.865817    -6.870551    0.627278    0.777263    4.974270    0.421594    -1.929563    15.292154    2.470953    -2.426335    2.594216    2.297436    4.326453    -0.118422    3.368812    -31.764511    -11.620869    -13.888865    52.972973    -45.711315    -71.337692    32.927357    -4.514049    13.851112    1.375753    7.805418    2.715602    27.092041    64.421051    36.803036    -0.728984    -11.352809    17.645193    4.382916    -11.121431    3.211098    2.737202    3.464917    -0.956174    -2.458488    0.096146    -3.525120    0.644880    -5.484168    12.017320    0.000000    0.000000    0.000000    1.918138    0.203057    2.838285    -1.441840    5.722406    0.904674    0.824482    -6.531684    -14.630894    0.000000    0.000000    0.000000    
123.233223    88.552673    1.755559    -0.913077    -1.144427    88.080025    2.826761    -6.866198    0.633337    0.837443    4.953609    0.427581    -2.209025    15.107442    2.386384    -1.967245    2.892887    2.276218    4.335626    -0.125905    3.329975    -31.721901    -11.499123    -13.929693    53.166447    -45.196014    -70.091011    32.696346    -4.725995    13.708310    1.357393    7.790210    2.688456    27.091749    64.445114    36.791718    -0.727378    -11.359221    17.643486    4.356080    -11.128839    3.210960    2.745627    3.460111    -0.949423    -2.462013    0.099126    -3.534812    0.733746    -5.434541    12.014254    0.000000    0.000000    0.000000    1.923285    0.195514    2.833019    -1.439831    5.726028    0.909285    0.817543    -6.528911    -14.637533    0.000000    0.000000    0.000000    
123.234406    88.553642    1.765600    -0.902018    -1.152909    88.088028    2.851891    -6.850718    0.613961    0.807853    4.940470    0.408427    -2.213512    15.129719    2.409100    -1.975139    2.853322    2.297833    4.357416    -0.148186    3.355708    -31.599434    -11.169524    -13.901904    53.516556    -44.744968    -68.541107    32.269463    -5.184024    13.443179    1.362305    7.808075    2.739009    27.130791    64.423096    36.756424    -0.749501    -11.358542    17.623270    4.385463    -11.123767    3.219239    2.760746    3.467833    -0.945208    -2.463194    0.105262    -3.533402    0.695052    -5.458731    12.017448    0.000000    0.000000    0.000000    1.938516    0.208330    2.828408    -1.439177    5.723369    0.912651    0.810339    -6.515480    -14.643437    0.000000    0.000000    0.000000    
123.231033    88.554886    1.771791    -0.905570    -1.148918    88.083923    2.958911    -6.868789    0.634212    0.501448    4.990242    0.434897    -1.856938    15.031361    2.395895    -2.129613    2.933739    2.265231    4.714477    -0.123338    3.388752    -31.755989    -11.325724    -14.068257    53.284664    -44.167736    -67.828667    32.011631    -5.166090    13.634292    1.660389    7.690126    2.708842    27.049747    64.525459    36.657154    -0.736082    -11.376723    17.712891    4.216046    -11.154749    3.035542    2.759714    3.460186    -0.926026    -2.458635    0.115085    -3.564773    0.639529    -5.487898    12.019651    0.000000    0.000000    0.000000    1.938422    0.198940    2.818115    -1.440935    5.726891    0.901489    0.820312    -6.522362    -14.613554    0.000000    0.000000    0.000000    
